<?xml version="1.0" standalone="no"?><!-- Generator: Gravit.io --><svg xmlns="http://www.w3.org/2000/svg" xmlns:xlink="http://www.w3.org/1999/xlink" style="isolation:isolate" viewBox="0 0 138.5 35.3" width="138.5" height="35.3"><defs><clipPath id="_clipPath_dOBBfnCnQwxn1XZikUc3n5P1CfTCRIyV"><rect width="138.5" height="35.3"/></clipPath></defs><g clip-path="url(#_clipPath_dOBBfnCnQwxn1XZikUc3n5P1CfTCRIyV)"><path d=" M 33.65 0.15 L 34.5 0.15 L 34.5 35.15 L 33.5 35.15 L 33.5 2.3 L 17.55 30.2 L 16.95 30.2 L 1 2.4 L 1 35.15 L 0 35.15 L 0 0.15 L 0.85 0.15 L 17.25 28.85 L 33.65 0.15 Z  M 73.95 35.15 L 69.05 24.6 L 47.65 24.6 L 42.75 35.15 L 41.6 35.15 L 57.85 0.15 L 58.85 0.15 L 75.1 35.15 L 73.95 35.15 Z  M 48.1 23.65 L 68.6 23.65 L 58.35 1.5 L 48.1 23.65 Z  M 108.3 35.15 L 107.05 35.15 L 98.15 22.8 L 98.15 22.8 Q 96.4 23.15 94.05 23.15 L 94.05 23.15 L 83.2 23.15 L 83.2 35.15 L 82.2 35.15 L 82.2 0.15 L 94.05 0.15 L 94.05 0.15 Q 100.5 0.15 104.15 3.175 L 104.15 3.175 L 104.15 3.175 Q 107.8 6.2 107.8 11.65 L 107.8 11.65 L 107.8 11.65 Q 107.8 15.85 105.55 18.675 L 105.55 18.675 L 105.55 18.675 Q 103.3 21.5 99.2 22.55 L 99.2 22.55 L 108.3 35.15 Z  M 83.2 22.2 L 94.15 22.2 L 94.15 22.2 Q 100.25 22.2 103.525 19.45 L 103.525 19.45 L 103.525 19.45 Q 106.8 16.7 106.8 11.65 L 106.8 11.65 L 106.8 11.65 Q 106.8 6.6 103.525 3.85 L 103.525 3.85 L 103.525 3.85 Q 100.25 1.1 94.15 1.1 L 94.15 1.1 L 83.2 1.1 L 83.2 22.2 Z  M 126.55 35.3 L 126.55 35.3 Q 122.75 35.3 119.4 33.925 L 119.4 33.925 L 119.4 33.925 Q 116.05 32.55 114.25 30.35 L 114.25 30.35 L 114.95 29.7 L 114.95 29.7 Q 116.65 31.7 119.8 33.025 L 119.8 33.025 L 119.8 33.025 Q 122.95 34.35 126.5 34.35 L 126.5 34.35 L 126.5 34.35 Q 131.95 34.35 134.725 32.175 L 134.725 32.175 L 134.725 32.175 Q 137.5 30 137.5 26.55 L 137.5 26.55 L 137.5 26.55 Q 137.5 23.85 136.05 22.25 L 136.05 22.25 L 136.05 22.25 Q 134.6 20.65 132.475 19.85 L 132.475 19.85 L 132.475 19.85 Q 130.35 19.05 126.75 18.2 L 126.75 18.2 L 126.75 18.2 Q 122.9 17.25 120.65 16.375 L 120.65 16.375 L 120.65 16.375 Q 118.4 15.5 116.825 13.675 L 116.825 13.675 L 116.825 13.675 Q 115.25 11.85 115.25 8.8 L 115.25 8.8 L 115.25 8.8 Q 115.25 6.4 116.5 4.4 L 116.5 4.4 L 116.5 4.4 Q 117.75 2.4 120.4 1.2 L 120.4 1.2 L 120.4 1.2 Q 123.05 0 126.95 0 L 126.95 0 L 126.95 0 Q 129.75 0 132.45 0.875 L 132.45 0.875 L 132.45 0.875 Q 135.15 1.75 137.1 3.2 L 137.1 3.2 L 136.55 4 L 136.55 4 Q 134.5 2.5 131.975 1.725 L 131.975 1.725 L 131.975 1.725 Q 129.45 0.95 127 0.95 L 127 0.95 L 127 0.95 Q 121.75 0.95 119 3.175 L 119 3.175 L 119 3.175 Q 116.25 5.4 116.25 8.85 L 116.25 8.85 L 116.25 8.85 Q 116.25 11.55 117.7 13.175 L 117.7 13.175 L 117.7 13.175 Q 119.15 14.8 121.3 15.6 L 121.3 15.6 L 121.3 15.6 Q 123.45 16.4 127.1 17.3 L 127.1 17.3 L 127.1 17.3 Q 130.9 18.25 133.15 19.125 L 133.15 19.125 L 133.15 19.125 Q 135.4 20 136.95 21.775 L 136.95 21.775 L 136.95 21.775 Q 138.5 23.55 138.5 26.55 L 138.5 26.55 L 138.5 26.55 Q 138.5 28.95 137.2 30.95 L 137.2 30.95 L 137.2 30.95 Q 135.9 32.95 133.225 34.125 L 133.225 34.125 L 133.225 34.125 Q 130.55 35.3 126.55 35.3 L 126.55 35.3 Z " fill-rule="evenodd" fill="rgb(255,255,255)"/></g></svg>